<svg width="32" height="31" viewBox="0 0 32 31" fill="none" xmlns="http://www.w3.org/2000/svg">
<path d="M8.66666 12.9163C8.36933 12.9163 8.084 12.9602 7.8 13.0003C7.892 12.7006 7.98666 12.3958 8.13866 12.122C8.29066 11.7241 8.528 11.3792 8.764 11.0318C8.96133 10.6559 9.30933 10.4015 9.56533 10.0798C9.83333 9.76724 10.1987 9.55929 10.488 9.29966C10.772 9.02841 11.144 8.89279 11.44 8.70162C11.7493 8.52983 12.0187 8.33995 12.3067 8.24954L13.0253 7.96279L13.6573 7.70833L13.0107 5.20508L12.2147 5.39108C11.96 5.45308 11.6493 5.52541 11.296 5.61195C10.9347 5.67654 10.5493 5.85349 10.12 6.01495C9.696 6.19837 9.20533 6.32237 8.74933 6.61687C8.29066 6.89845 7.76133 7.13354 7.29466 7.5107C6.84266 7.89949 6.29733 8.23662 5.89466 8.73133C5.45466 9.19375 5.02 9.67941 4.68266 10.2322C4.292 10.7592 4.02666 11.3379 3.74666 11.9101C3.49333 12.4823 3.28933 13.0675 3.12266 13.6358C2.80666 14.775 2.66533 15.8575 2.61066 16.7836C2.56533 17.711 2.592 18.4821 2.648 19.0401C2.668 19.3036 2.70533 19.5594 2.732 19.7363L2.76533 19.9533L2.8 19.9456C3.03714 21.0187 3.58307 22.0049 4.37461 22.7901C5.16616 23.5752 6.17098 24.1272 7.27285 24.3822C8.37471 24.6372 9.52859 24.5849 10.601 24.2311C11.6734 23.8774 12.6205 23.2367 13.3328 22.3833C14.0451 21.5299 14.4934 20.4986 14.6259 19.4086C14.7584 18.3187 14.5696 17.2147 14.0815 16.2243C13.5934 15.2339 12.8258 14.3977 11.8675 13.8123C10.9093 13.2269 9.79954 12.9163 8.66666 12.9163ZM23.3333 12.9163C23.036 12.9163 22.7507 12.9602 22.4667 13.0003C22.5587 12.7006 22.6533 12.3958 22.8053 12.122C22.9573 11.7241 23.1947 11.3792 23.4307 11.0318C23.628 10.6559 23.976 10.4015 24.232 10.0798C24.5 9.76724 24.8653 9.55929 25.1547 9.29966C25.4387 9.02841 25.8107 8.89279 26.1067 8.70162C26.416 8.52983 26.6853 8.33995 26.9733 8.24954L27.692 7.96279L28.324 7.70833L27.6773 5.20508L26.8813 5.39108C26.6267 5.45308 26.316 5.52541 25.9627 5.61195C25.6013 5.67654 25.216 5.85349 24.7867 6.01495C24.364 6.19966 23.872 6.32237 23.416 6.61816C22.9573 6.89974 22.428 7.13483 21.9613 7.51199C21.5093 7.90079 20.964 8.23791 20.5613 8.73133C20.1213 9.19375 19.6867 9.67941 19.3493 10.2322C18.9587 10.7592 18.6933 11.3379 18.4133 11.9101C18.16 12.4823 17.956 13.0675 17.7893 13.6358C17.4733 14.775 17.332 15.8575 17.2773 16.7836C17.232 17.711 17.2587 18.4821 17.3147 19.0401C17.3347 19.3036 17.372 19.5594 17.3987 19.7363L17.432 19.9533L17.4667 19.9456C17.7038 21.0187 18.2497 22.0049 19.0413 22.7901C19.8328 23.5752 20.8377 24.1272 21.9395 24.3822C23.0414 24.6372 24.1953 24.5849 25.2677 24.2311C26.3401 23.8774 27.2872 23.2367 27.9995 22.3833C28.7117 21.5299 29.1601 20.4986 29.2926 19.4086C29.425 18.3187 29.2363 17.2147 28.7482 16.2243C28.26 15.2339 27.4924 14.3977 26.5342 13.8123C25.576 13.2269 24.4662 12.9163 23.3333 12.9163Z" fill="#1093A1"/>
</svg>
